<svg width="40" height="64" viewBox="0 0 40 64" fill="none" xmlns="http://www.w3.org/2000/svg">
<rect width="40" height="64" fill="#CDCDCD"/>
<g id="Desktop">
<rect width="1024" height="790" transform="translate(-337 -64)" fill="white"/>
<g id="main">
<g id="img1" clip-path="url(#clip0_0_1)">
<path id="Vector" d="M38.3184 51.7041C38.0079 51.7499 37.6901 51.704 37.408 51.5727C37.1259 51.4414 36.8932 51.231 36.7413 50.97C36.5894 50.709 36.5258 50.41 36.559 50.1135C36.5923 49.817 36.7207 49.5374 36.9271 49.3126C36.9489 49.1637 36.9645 49.0568 36.9863 48.908C36.969 48.8779 36.9515 48.8478 36.934 48.8178C36.5389 48.1457 35.9432 47.5994 35.2219 47.2474C34.5006 46.8955 33.6857 46.7537 32.8797 46.8397C32.0737 46.9258 31.3124 47.2359 30.6916 47.7311C30.0707 48.2264 29.618 48.8846 29.3901 49.6232C28.4791 52.5713 27.2315 55.5589 27.1865 58.5812C27.1672 59.917 27.3923 61.246 27.8517 62.5088C24.2647 56.8077 22.0117 50.4415 21.2453 43.8418C21.0548 42.1855 20.962 40.5204 20.9675 38.8543C20.9732 37.4883 21.0422 36.1254 21.1744 34.7658C21.9009 27.3877 24.4615 20.2783 28.6462 14.0215C30.8518 12.5656 32.534 10.5033 33.4663 8.11238C33.8047 7.25258 34.0102 6.35082 34.0763 5.43516C33.8156 5.49537 33.5491 5.54368 33.2865 5.58742C33.2046 5.60002 33.1183 5.6131 33.0364 5.62573L33.0055 5.63026C32.7162 5.67264 32.4202 5.63478 32.153 5.52124C31.8859 5.4077 31.6591 5.22332 31.4998 4.9903C31.3406 4.75728 31.2557 4.48555 31.2554 4.20783C31.2552 3.9301 31.3395 3.65823 31.4983 3.42493C31.5972 3.27979 31.6962 3.13471 31.7953 2.9897C31.9452 2.76608 32.0998 2.54613 32.2497 2.32255C32.2675 2.30094 32.2839 2.27838 32.299 2.25498C32.4716 1.99988 32.6446 1.74892 32.8172 1.49382C32.3916 0.995223 31.8504 0.59663 31.2358 0.329117C29.1095 -0.575403 26.4399 0.478537 25.1926 2.34315C23.941 4.20819 23.9438 6.64321 24.6924 8.73475C25.3962 10.5076 26.4128 12.1539 27.6988 13.603C27.6054 13.7459 27.5073 13.8851 27.414 14.0279C25.7095 16.6501 24.28 19.4245 23.1459 22.3112C23.1465 19.2083 22.3706 16.1495 20.8821 13.3866C19.4005 10.8214 16.9413 8.78594 14.7379 6.66352C12.0912 4.11418 7.4592 5.824 7.45463 9.40241C7.45458 9.43706 7.45463 9.47168 7.45477 9.50629C7.76017 9.63061 8.06058 9.76502 8.35599 9.90952C8.72736 10.0933 9.03157 10.3791 9.22876 10.7297C9.42596 11.0803 9.50693 11.4792 9.46108 11.8742C9.41524 12.2692 9.24471 12.6419 8.97183 12.9433C8.69896 13.2448 8.33646 13.461 7.93185 13.5637L7.89042 13.5742C8.10572 14.5476 8.3987 15.504 8.76682 16.4352C9.82188 19.0321 11.431 21.3941 13.4933 23.3733C15.5555 25.3524 18.0265 26.906 20.7513 27.9367C20.9298 28.0015 21.1041 28.0668 21.2821 28.1275C20.2758 32.189 19.8304 36.3574 19.9571 40.5279C20.0402 42.9875 20.3327 45.4368 20.8318 47.8516L20.8089 47.7666C19.9431 45.1134 18.1388 42.8249 15.7006 41.2877C12.0837 39.0426 7.28361 38.5737 3.46318 36.8633C3.05592 36.6707 2.5991 36.5926 2.1466 36.6382C1.6941 36.6839 1.26479 36.8513 0.909304 37.1209C0.553823 37.3904 0.286996 37.7508 0.140295 38.1595C-0.00640629 38.5682 -0.0268642 39.0082 0.0813362 39.4275C0.0896069 39.4573 0.0979641 39.4871 0.106402 39.5169C0.66402 39.6681 1.21116 39.8521 1.74466 40.0679C2.05006 40.1923 2.35046 40.3267 2.64587 40.4712C3.01724 40.6549 3.32145 40.9408 3.51864 41.2914C3.71583 41.642 3.79681 42.0409 3.75096 42.4359C3.70511 42.8309 3.53458 43.2035 3.26171 43.505C2.98883 43.8065 2.62634 44.0227 2.22173 44.1254L2.18026 44.1359C2.15039 44.1431 2.12484 44.15 2.09501 44.1572C3.2443 46.1299 4.74291 47.9002 6.5252 49.3906C8.72221 51.1905 11.2836 52.5457 14.0522 53.3731C16.8208 54.2005 19.7384 54.4826 22.626 54.2021L22.6304 54.2017C23.7839 57.3505 25.2792 60.377 27.0923 63.2325L39.1901 61.984C39.2189 61.8519 39.2428 61.7162 39.2673 61.5847C38.1551 61.767 37.0236 61.8195 35.898 61.7409C36.6758 60.6033 37.4526 59.4574 38.2304 58.3198C38.2482 58.2982 38.2647 58.2757 38.2797 58.2523C38.6737 57.6705 39.0725 57.0923 39.4665 56.5105L39.4667 56.5098C39.303 54.8679 38.9172 53.2528 38.3188 51.7043L38.3184 51.7041Z" fill="#F2F2F2"/>
<path id="Vector_2" d="M311.61 163.412C306.134 163.412 300.131 163.216 293.603 162.823C259.835 160.789 216.097 153.715 170.443 142.906C124.79 132.098 82.6759 118.844 51.86 105.588C36.8487 99.1305 25.3275 93.0179 17.617 87.4197C9.45363 81.4933 5.88284 76.3274 7.00344 72.0662C9.18691 63.7647 28.5204 61.9485 44.3548 61.8868L44.3602 63.094C22.6154 63.1787 9.78708 66.469 8.23818 72.3586C6.26515 79.8598 22.3563 91.5705 52.3855 104.489C83.1336 117.715 125.17 130.943 170.751 141.735C216.332 152.527 259.99 159.588 293.683 161.618C326.587 163.601 346.592 160.436 348.565 152.935C350.203 146.707 339.404 137.532 318.158 127.1L318.743 126.028C334.181 133.608 352.1 144.48 349.799 153.227C348.679 157.488 342.968 160.457 332.827 162.049C327.047 162.957 319.946 163.412 311.61 163.412Z" fill="#EE24FF"/>
</g>
</g>
</g>
<defs>
<clipPath id="clip0_0_1">
<rect width="350" height="238" fill="white"/>
</clipPath>
</defs>
</svg>
