<svg width="39" height="64" viewBox="0 0 39 64" fill="none" xmlns="http://www.w3.org/2000/svg">
<path id="Vector" d="M1.25031 52.4383C1.56319 52.4658 1.87742 52.4014 2.15044 52.2538C2.42346 52.1062 2.64206 51.8826 2.77663 51.6131C2.9112 51.3437 2.95525 51.0416 2.90278 50.7476C2.8503 50.4537 2.70386 50.1821 2.4833 49.9698C2.45184 49.8225 2.42928 49.7167 2.39782 49.5695C2.41318 49.5384 2.42863 49.5074 2.44416 49.4764C2.79477 48.7824 3.35369 48.2022 4.05073 47.8087C4.74776 47.4151 5.55182 47.2258 6.3619 47.2644C7.17198 47.3031 7.95196 47.568 8.60387 48.0259C9.25579 48.4838 9.75056 49.1142 10.026 49.838C11.1273 52.727 12.5671 55.6358 12.8088 58.6497C12.9151 59.9819 12.7769 61.3215 12.4006 62.6088C15.6095 56.7084 17.4437 50.2222 17.7789 43.5902C17.8611 41.9259 17.8453 40.2585 17.7314 38.5959C17.6367 37.2328 17.479 35.8767 17.2585 34.5274C16.053 27.206 13.0343 20.2603 8.4502 14.2607C6.154 12.9369 4.34068 10.9771 3.25456 8.64544C2.86077 7.80712 2.59696 6.91913 2.47131 6.0091C2.73546 6.05392 3.00457 6.08652 3.26952 6.11478C3.35212 6.12255 3.43907 6.13055 3.52167 6.13836L3.55281 6.14106C3.8443 6.1664 4.1373 6.11125 4.39653 5.98227C4.65575 5.85328 4.87014 5.65596 5.01392 5.41405C5.15769 5.17214 5.22472 4.89596 5.20691 4.61875C5.18909 4.34154 5.08719 4.07514 4.9135 3.8516C4.80532 3.71254 4.69707 3.57353 4.58874 3.4346C4.4246 3.22019 4.2559 3.00974 4.09178 2.79536C4.07263 2.77484 4.05472 2.75329 4.03817 2.73083C3.84928 2.48633 3.66026 2.24598 3.47137 2.00148C3.86365 1.47889 4.37786 1.04933 4.97389 0.746299C7.03726 -0.281141 9.7704 0.614304 11.1367 2.40224C12.5074 4.19033 12.6632 6.62087 12.0521 8.75231C11.4652 10.563 10.5577 12.2657 9.36856 13.7875C9.47102 13.9246 9.578 14.0578 9.68042 14.1949C11.5524 16.7122 13.1599 19.3974 14.4798 22.2122C14.2772 19.1152 14.8524 16.0168 16.1581 13.1719C17.4698 10.5247 19.7918 8.34902 21.8528 6.10149C24.3284 3.40187 29.0629 4.83688 29.3005 8.40818C29.3028 8.44276 29.305 8.47732 29.3071 8.51187C29.0104 8.65386 28.7193 8.80562 28.4339 8.96715C28.0752 9.17231 27.7902 9.47549 27.6162 9.83696C27.4422 10.1984 27.3873 10.6013 27.4588 10.9929C27.5303 11.3844 27.7248 11.7464 28.0168 12.0313C28.3088 12.3162 28.6846 12.5107 29.0952 12.5895L29.1372 12.5976C28.9857 13.5817 28.7555 14.5535 28.4488 15.5045C27.5648 18.1582 26.1126 20.6101 24.1831 22.7064C22.2537 24.8026 19.8886 26.4981 17.2362 27.6865C17.0622 27.7617 16.8925 27.837 16.7188 27.9081C17.9876 31.9028 18.7036 36.0372 18.8487 40.2071C18.926 42.6669 18.7935 45.1286 18.4526 47.5681L18.4699 47.4819C19.1613 44.783 20.8132 42.3932 23.1466 40.716C26.6104 38.2631 31.3708 37.5137 35.0725 35.5826C35.4665 35.3665 35.9173 35.2618 36.3719 35.2808C36.8266 35.2998 37.266 35.4418 37.6383 35.69C38.0107 35.9382 38.3004 36.2822 38.4735 36.6816C38.6465 37.0809 38.6956 37.5188 38.6149 37.9437C38.6086 37.9739 38.6022 38.0041 38.5957 38.0343C38.049 38.218 37.5149 38.4337 36.9965 38.6804C36.6997 38.8224 36.4087 38.9742 36.1232 39.1357C35.7645 39.3408 35.4795 39.644 35.3055 40.0055C35.1315 40.367 35.0767 40.7699 35.1482 41.1614C35.2197 41.553 35.4141 41.9149 35.7061 42.1998C35.9981 42.4847 36.374 42.6793 36.7845 42.758L36.8266 42.7661C36.8569 42.7716 36.8828 42.7769 36.913 42.7824C35.8944 44.8187 34.514 46.6735 32.8321 48.2654C30.7565 50.1907 28.2883 51.6935 25.5789 52.6816C22.8694 53.6697 19.9758 54.1223 17.0754 54.0117L17.071 54.0115C16.1247 57.2219 14.8293 60.3303 13.2057 63.2866L1.04963 62.7496C1.01231 62.6195 0.979618 62.4855 0.946675 62.3556C2.06858 62.4724 3.20134 62.4585 4.31967 62.3141C3.46927 61.2242 2.61928 60.1261 1.76888 59.0362C1.74973 59.0157 1.73185 58.9942 1.7153 58.9717C1.28419 58.4141 0.848494 57.8604 0.417382 57.3028L0.417175 57.3021C0.473614 55.6537 0.753487 54.0191 1.24989 52.4385L1.25031 52.4383Z" fill="#F2F2F2"/>
</svg>
