<svg width="63" height="37" viewBox="0 0 63 37" fill="none" xmlns="http://www.w3.org/2000/svg">
<rect width="63" height="37" fill="#CDCDCD"/>
<rect width="1024" height="790" transform="translate(-541 -119)" fill="white"/>
<g clip-path="url(#clip0_0_1)">
<path d="M1.46077 -7.54967C2.05958 -7.39336 2.615 -7.11437 3.08787 -6.73236C3.56075 -6.35036 3.93958 -5.87462 4.19771 -5.33867C4.45584 -4.80272 4.58698 -4.2196 4.58188 -3.63036C4.57679 -3.04112 4.43559 -2.4601 4.16823 -1.92824L10.6603 4.91996L7.23632 9.67816L-1.78856 -0.114973C-2.7005 -0.600344 -3.3931 -1.38624 -3.73513 -2.32375C-4.07717 -3.26126 -4.04486 -4.28524 -3.64434 -5.20167C-3.24382 -6.11809 -2.50292 -6.86328 -1.56202 -7.29603C-0.621112 -7.72879 0.454424 -7.81903 1.46077 -7.54967Z" fill="#A0616A"/>
<path d="M62.2382 9.26613C61.653 8.36232 60.8854 7.57702 59.9796 6.95527C59.0738 6.33352 58.0475 5.88755 56.9596 5.64295C55.8717 5.39835 54.7436 5.35994 53.6401 5.5299C52.5365 5.69987 51.4792 6.07486 50.5287 6.63339L29.1779 19.1798L6.14681 0.60495L0.416641 5.6669L25.8594 36.9872L58.9275 20.631C58.1558 21.0127 63.1707 10.7062 62.2382 9.26613Z" fill="#CCCCCC"/>
<path d="M19.9417 50.9836C19.9438 60.9885 17.8684 70.8958 13.8341 80.1395C9.79976 89.3832 3.8855 97.7822 -3.5708 104.857C-11.0271 111.931 -19.8793 117.543 -29.6219 121.37C-39.3644 125.198 -49.8063 127.167 -60.3511 127.165C-104.695 127.165 -140.644 93.057 -140.644 50.9836C-140.652 42.7997 -139.269 34.6681 -136.549 26.9017C-131.209 11.734 -120.979 -1.45717 -107.305 -10.8066C-93.6311 -20.156 -77.2056 -25.1904 -60.3511 -25.1981C-45.8152 -25.2028 -31.5507 -21.4623 -19.0804 -14.3758C-6.61012 -7.28925 3.59787 2.87728 10.4538 15.0385C12.1537 18.039 13.6366 21.1457 14.8922 24.337C15.0661 24.7813 15.2357 25.2257 15.4007 25.6744V25.6786C16.1367 27.6508 16.7851 29.6597 17.3456 31.7054C19.0748 38 19.9473 44.4787 19.9417 50.9836Z" fill="#3F3D56"/>
<path d="M3.46381 33.7115C4.84667 34.0205 6.22951 34.3294 7.61231 34.6384C7.3714 39.0697 5.05634 43.1708 1.95171 44.6563C0.658081 45.2742 -0.782715 45.5027 -1.8533 46.6582C-2.82124 47.7078 -3.31195 49.3414 -3.76249 50.9032C-4.55205 53.6288 -5.34161 56.3544 -6.13116 59.08C-6.97865 62.0172 -8.06703 65.2804 -10.2707 66.3385C-12.162 67.2484 -14.3254 66.1353 -15.7796 64.2688C-17.2338 62.4024 -18.1215 59.8926 -18.9824 57.4464C-18.9289 60.1127 -20.2359 62.7283 -22.0871 63.6551C-23.9427 64.582 -26.1999 63.744 -27.4399 61.6744C-28.3321 60.1889 -28.7023 58.2293 -29.5766 56.7226C-30.4509 55.2159 -32.2842 54.3525 -33.2388 55.7661C-33.8678 56.7057 -33.7876 58.1447 -34.0998 59.3382C-34.586 61.1919 -36.058 62.3558 -37.5167 62.4574C-38.9709 62.559 -40.3894 61.7633 -41.6071 60.684C-44.1185 58.4494 -45.9697 54.9027 -46.6879 50.9624C-47.0046 49.206 -47.0938 47.293 -46.5451 45.6466C-45.9965 44.0003 -44.6716 42.7306 -43.3558 43.0438C-42.4904 41.3085 -44.1988 39.0061 -45.7378 39.2093C-47.2812 39.4124 -48.49 40.9826 -49.7569 42.1889C-51.0192 43.3951 -52.7856 44.2711 -54.057 43.0734C-54.0481 44.1865 -55.0027 44.9229 -55.8279 44.8298C-56.6487 44.7409 -57.3802 44.1146 -58.134 43.6701C-61.0469 41.9476 -64.7449 43.0903 -66.8146 46.3492C-65.521 41.1265 -63.6252 35.1335 -59.6508 33.9062C-58.027 33.4025 -56.2561 33.8173 -54.7217 32.9454C-52.005 31.4007 -51.4564 25.5643 -53.8027 23.1561C-53.5039 25.433 -53.5618 28.0909 -54.8287 29.6485C-56.0955 31.206 -58.7542 30.1902 -58.5935 27.8878C-58.9593 29.4749 -60.7793 29.7162 -61.6179 28.4972C-62.461 27.2784 -62.3896 25.285 -61.7919 23.829C-61.1942 22.3731 -60.1771 21.3277 -59.1913 20.3247C-57.0725 18.1704 -54.9224 15.9908 -52.469 14.6364C-50.0111 13.2821 -47.1741 12.825 -44.7118 14.1709C-43.4137 14.8819 -42.2718 16.067 -40.947 16.6933C-39.6221 17.3239 -37.9405 17.2436 -37.0617 15.7707C-36.0759 14.1285 -36.5398 11.6907 -36.174 9.63805C-35.5183 6.01097 -31.6955 4.31381 -29.5766 6.70926C-31.1602 6.32415 -32.7973 8.10171 -32.9936 10.256C-33.1943 12.4102 -32.0478 14.5857 -30.5134 15.2374C-27.9351 16.3209 -25.4103 13.5953 -23.461 11.0728C-21.4269 8.43186 -19.3899 5.7923 -17.3498 3.15416C-17.0241 2.70499 -16.6584 2.28305 -16.2569 1.89295C-15.618 1.30206 -14.7663 0.963692 -13.8742 0.946406C-12.9822 0.929119 -12.1166 1.2342 -11.4527 1.79985C-9.3919 3.39538 -8.4239 6.66701 -6.73327 8.91858C-4.27988 12.1902 -0.608704 12.9858 2.80816 13.6207C5.35521 14.0905 7.90379 14.5631 10.4539 15.0385C12.1537 18.039 13.6366 21.1456 14.8923 24.3369C10.5742 26.0764 6.59077 29.3311 3.46381 33.7115Z" fill="white"/>
<path d="M64.6244 10.2517L61.3402 3.63583L50.1623 4.04344L46.5163 10.9262C46.5163 10.9262 36.0966 22.7344 35.7593 26.5739C35.3352 31.403 38.8605 55.0703 35.3352 53.5362C35.3352 53.5362 27.0244 62.7919 31.9421 62.7919C36.8598 62.7919 59.1049 76.0412 60.5646 77.5312C62.0242 79.0212 68.5403 79.9873 67.9939 76.8766C67.4474 73.766 64.6244 56.9431 64.6244 56.9431L72.2668 30.4907C74.4663 24.7797 75.1508 18.3736 70.1788 14.5373L64.6244 10.2517Z" fill="#CCCCCC"/>
<path d="M23.2204 -9.22056C21.7253 -9.78366 20.1279 -10.0618 18.5195 -10.0392C16.911 -10.0166 15.3231 -9.69361 13.8462 -9.0887C12.3693 -8.48379 11.0325 -7.60881 9.91203 -6.51372C8.79156 -5.41862 7.9094 -4.12485 7.31592 -2.70628C4.81995 3.25962 4.40631 17.5066 9.05115 24.647C15.0234 14.8041 27.1061 11.1696 30.0862 5.8696C33.2706 0.206396 29.5083 -6.85239 23.2204 -9.22056Z" fill="#EE24FF"/>
<path d="M18.1923 4.03892C20.3986 4.03892 22.1872 2.34192 22.1872 0.248557C22.1872 -1.8448 20.3986 -3.54181 18.1923 -3.54181C15.9859 -3.54181 14.1974 -1.8448 14.1974 0.248557C14.1974 2.34192 15.9859 4.03892 18.1923 4.03892Z" fill="white"/>
<path d="M6.17233 29.4777C7.61743 29.4777 8.78891 28.3662 8.78891 26.9951C8.78891 25.624 7.61743 24.5125 6.17233 24.5125C4.72723 24.5125 3.55576 25.624 3.55576 26.9951C3.55576 28.3662 4.72723 29.4777 6.17233 29.4777Z" fill="#EE24FF"/>
<path opacity="0.2" d="M22.133 -1.54879C22.8648 -0.822827 23.263 0.149116 23.24 1.15347C23.217 2.15782 22.7747 3.11243 22.0103 3.80754C21.2459 4.50266 20.2219 4.88141 19.1633 4.86059C18.1047 4.83978 17.0982 4.42108 16.3648 3.69651C17.2042 4.11564 18.1734 4.23766 19.099 4.04071C20.0246 3.84376 20.8461 3.3407 21.4165 2.62158C21.9869 1.90246 22.2689 1.01423 22.2121 0.115839C22.1553 -0.782547 21.7634 -1.63243 21.1065 -2.28171C21.4881 -2.09154 21.8347 -1.84404 22.133 -1.54879Z" fill="#231F20"/>
<path opacity="0.2" d="M30.0979 5.88533C27.1178 11.1853 15.0351 14.8198 9.06286 24.6628C8.62746 23.9863 8.24537 23.2801 7.91975 22.5501C14.0725 13.4371 25.4486 9.87047 28.3279 4.74976C30.905 0.166615 28.9319 -5.33014 24.753 -8.51544C30.1 -5.66554 33.0161 0.695558 30.0979 5.88533Z" fill="#231F20"/>
<path d="M4.99309 26.1403C5.60136 26.0213 6.22974 26.0303 6.83394 26.1667C7.43813 26.3031 8.00346 26.5635 8.49011 26.9296C8.97676 27.2957 9.37288 27.7586 9.65059 28.2856C9.92829 28.8127 10.0808 29.3911 10.0974 29.9802L19.1605 33.2809L18.3897 38.9958L5.65987 34.1639C4.61505 34.1248 3.62165 33.7234 2.86792 33.0358C2.11418 32.3481 1.65247 31.4221 1.57029 30.4331C1.4881 29.444 1.79116 28.4608 2.42201 27.6696C3.05286 26.8784 3.96767 26.3342 4.99311 26.1402L4.99309 26.1403Z" fill="#A0616A"/>
<path d="M68.3195 14.3635C67.3652 13.8107 66.3054 13.4422 65.2007 13.2789C64.096 13.1157 62.9682 13.161 61.882 13.4122C60.7958 13.6634 59.7726 14.1156 58.871 14.7429C57.9693 15.3701 57.2071 16.1601 56.628 17.0674L43.6191 37.4497L14.2066 30.8348L11.527 37.8147L49.1928 54.7429L68.2693 25.9145C71.1254 22.1063 72.5241 16.7989 68.3195 14.3635Z" fill="#CCCCCC"/>
<path d="M68.8053 -10.6157C68.806 -8.65121 68.2985 -6.71658 67.3273 -4.98164C66.3561 -3.24669 64.9508 -1.76448 63.2349 -0.665119C61.519 0.434246 59.5449 1.11715 57.4858 1.32364C55.4268 1.53014 53.3458 1.25391 51.4256 0.519205C49.5053 -0.2155 47.8045 -1.38621 46.4725 -2.89017C45.1404 -4.39412 44.2179 -6.18534 43.7857 -8.10656C43.3536 -10.0278 43.4252 -12.0203 43.9941 -13.9091C44.5631 -15.798 45.6121 -17.5255 47.0489 -18.9399L47.1097 -18.9974C47.2109 -19.0983 47.3121 -19.1991 47.4183 -19.2951C47.419 -19.2951 47.4196 -19.2952 47.4203 -19.2955C47.4209 -19.2957 47.4214 -19.2961 47.4219 -19.2965C47.4224 -19.297 47.4227 -19.2975 47.423 -19.2981C47.4232 -19.2987 47.4233 -19.2993 47.4233 -19.2999C47.5549 -19.4151 47.6864 -19.5304 47.8231 -19.6408C49.6508 -21.1612 51.9017 -22.1495 54.3063 -22.4875C56.7108 -22.8255 59.167 -22.4989 61.3809 -21.5466C63.5948 -20.5943 65.4725 -19.0569 66.7892 -17.1182C68.106 -15.1796 68.8059 -12.922 68.8053 -10.6157V-10.6157Z" fill="#2F2E41"/>
<path d="M53.0399 2.22475C58.8978 2.22475 63.6466 -2.28091 63.6466 -7.83892C63.6466 -13.3969 58.8978 -17.9026 53.0399 -17.9026C47.1819 -17.9026 42.4331 -13.3969 42.4331 -7.83892C42.4331 -2.28091 47.1819 2.22475 53.0399 2.22475Z" fill="#9E616A"/>
<path d="M86.6752 3.60534C83.0658 1.83771 87.7079 -4.57767 86.7751 -8.32857C85.8423 -12.0795 79.1249 -13.2859 78.697 -17.1184C78.269 -20.9508 77.2623 -24.9036 74.5969 -27.8117C72.8937 -29.67 70.384 -31.0418 67.8001 -30.8091C66.9259 -30.7303 66.0798 -30.4737 65.3194 -30.0567C64.5591 -29.6398 63.9024 -29.0722 63.3942 -28.3927C62.8859 -27.7133 62.5379 -26.9378 62.3739 -26.1192C62.2099 -25.3007 62.2339 -24.4582 62.444 -23.6492C61.7083 -24.6382 59.8044 -24.4238 59.3332 -23.2988C58.9142 -22.2987 59.8397 -21.0873 60.929 -20.9988C62.3543 -19.3287 63.9864 -17.5563 66.2194 -17.2194C66.5751 -17.1419 66.9448 -17.1421 67.3005 -17.22C67.6562 -17.2979 67.9886 -17.4515 68.2725 -17.6691C68.7978 -18.1477 68.8387 -19.1047 68.2155 -19.4624C71.0217 -18.4048 72.6669 -15.5261 73.0833 -12.6886C73.4996 -9.8511 72.9236 -6.98013 72.544 -4.13801C72.1644 -1.29588 72.0009 1.69389 73.1754 4.33316C74.5631 7.45146 77.758 9.68643 81.2447 10.4032C84.7314 11.1199 88.4447 10.4194 91.6007 8.84118C94.7568 7.26284 97.3886 4.85342 99.5386 2.15217C95.8351 4.64726 90.7114 5.58199 86.6752 3.60534Z" fill="#2F2E41"/>
<path opacity="0.2" d="M56.8172 30.4571L49.2103 38.8191L36.6409 35.2975L50.3436 41.2887L56.8172 30.4571Z" fill="black"/>
<path d="M107.61 108.412C102.134 108.412 96.1311 108.216 89.6026 107.823C55.8354 105.789 12.0965 98.7152 -33.557 87.9064C-79.2103 77.0976 -121.324 63.844 -152.14 50.5881C-167.151 44.1305 -178.672 38.0179 -186.383 32.4197C-194.546 26.4933 -198.117 21.3274 -196.997 17.0662C-194.813 8.76468 -175.48 6.94848 -159.645 6.88678L-159.64 8.09405C-181.385 8.17874 -194.213 11.469 -195.762 17.3586C-197.735 24.8598 -181.644 36.5705 -151.615 49.4885C-120.866 62.7154 -78.83 75.9434 -33.2488 86.7353C12.3322 97.5268 55.9905 104.588 89.6834 106.618C122.587 108.601 142.592 105.436 144.565 97.9348C146.203 91.7066 135.404 82.5319 114.158 72.1L114.743 71.0279C130.181 78.6079 148.1 89.4796 145.799 98.2271C144.679 102.488 138.968 105.457 128.827 107.049C123.047 107.957 115.946 108.412 107.61 108.412Z" fill="#EE24FF"/>
</g>
<defs>
<clipPath id="clip0_0_1">
<rect width="350" height="238" fill="white" transform="translate(-204 -55)"/>
</clipPath>
</defs>
</svg>
