<svg width="15" height="18" viewBox="0 0 15 18" fill="none" xmlns="http://www.w3.org/2000/svg">
<rect width="15" height="18" fill="#CDCDCD"/>
<g id="Desktop">
<rect width="1024" height="790" transform="translate(-537 -111)" fill="white"/>
<g id="main">
<g id="img1" clip-path="url(#clip0_0_1)">
<path id="Vector" d="M5.46077 0.450327C6.05958 0.60664 6.615 0.885631 7.08787 1.26764C7.56075 1.64964 7.93958 2.12538 8.19771 2.66133C8.45584 3.19728 8.58698 3.7804 8.58188 4.36964C8.57679 4.95888 8.43559 5.5399 8.16823 6.07176L14.6603 12.92L11.2363 17.6782L2.21144 7.88503C1.2995 7.39966 0.606903 6.61376 0.264869 5.67625C-0.0771652 4.73874 -0.0448649 3.71476 0.355656 2.79833C0.756177 1.88191 1.49708 1.13672 2.43798 0.703965C3.37889 0.271214 4.45442 0.180968 5.46077 0.450327Z" fill="#A0616A"/>
<path id="Vector_2" d="M66.2382 17.2661C65.653 16.3623 64.8854 15.577 63.9796 14.9553C63.0738 14.3335 62.0475 13.8875 60.9596 13.6429C59.8717 13.3984 58.7436 13.3599 57.6401 13.5299C56.5365 13.6999 55.4792 14.0749 54.5287 14.6334L33.1779 27.1798L10.1468 8.60495L4.41664 13.6669L29.8594 44.9872L62.9275 28.631C62.1558 29.0127 67.1707 18.7062 66.2382 17.2661Z" fill="#CCCCCC"/>
<path id="Vector_3" d="M23.9417 58.9836C23.9438 68.9885 21.8684 78.8958 17.8341 88.1395C13.7998 97.3832 7.8855 105.782 0.429199 112.857C-7.0271 119.931 -15.8793 125.543 -25.6219 129.37C-35.3644 133.198 -45.8063 135.167 -56.3511 135.165C-100.695 135.165 -136.644 101.057 -136.644 58.9836C-136.652 50.7997 -135.269 42.6681 -132.549 34.9017C-127.209 19.734 -116.979 6.54283 -103.305 -2.80657C-89.6311 -12.156 -73.2056 -17.1904 -56.3511 -17.1981C-41.8152 -17.2028 -27.5507 -13.4623 -15.0804 -6.37579C-2.61012 0.710754 7.59787 10.8773 14.4538 23.0385C16.1537 26.039 17.6366 29.1457 18.8922 32.337C19.0661 32.7813 19.2357 33.2257 19.4007 33.6744V33.6786C20.1367 35.6508 20.7851 37.6597 21.3456 39.7054C23.0748 46 23.9473 52.4787 23.9417 58.9836Z" fill="#3F3D56"/>
<path id="Vector_4" d="M7.46381 41.7115C8.84667 42.0205 10.2295 42.3294 11.6123 42.6384C11.3714 47.0697 9.05634 51.1708 5.95171 52.6563C4.65808 53.2742 3.21729 53.5027 2.1467 54.6582C1.17876 55.7078 0.688046 57.3414 0.237507 58.9032C-0.552048 61.6288 -1.34161 64.3544 -2.13116 67.08C-2.97865 70.0172 -4.06703 73.2804 -6.27065 74.3385C-8.16199 75.2484 -10.3254 74.1353 -11.7796 72.2688C-13.2338 70.4024 -14.1215 67.8926 -14.9824 65.4464C-14.9289 68.1127 -16.2359 70.7283 -18.0871 71.6551C-19.9427 72.582 -22.1999 71.744 -23.4399 69.6744C-24.3321 68.1889 -24.7023 66.2293 -25.5766 64.7226C-26.4509 63.2159 -28.2842 62.3525 -29.2388 63.7661C-29.8678 64.7057 -29.7876 66.1447 -30.0998 67.3382C-30.586 69.1919 -32.058 70.3558 -33.5167 70.4574C-34.9709 70.559 -36.3894 69.7633 -37.6071 68.684C-40.1185 66.4494 -41.9697 62.9027 -42.6879 58.9624C-43.0046 57.206 -43.0938 55.293 -42.5451 53.6466C-41.9965 52.0003 -40.6716 50.7306 -39.3558 51.0438C-38.4904 49.3085 -40.1988 47.0061 -41.7378 47.2093C-43.2812 47.4124 -44.49 48.9826 -45.7569 50.1889C-47.0192 51.3951 -48.7856 52.2711 -50.057 51.0734C-50.0481 52.1865 -51.0027 52.9229 -51.8279 52.8298C-52.6487 52.7409 -53.3802 52.1146 -54.134 51.6701C-57.0469 49.9476 -60.7449 51.0903 -62.8146 54.3492C-61.521 49.1265 -59.6252 43.1335 -55.6508 41.9062C-54.027 41.4025 -52.2561 41.8173 -50.7217 40.9454C-48.005 39.4007 -47.4564 33.5643 -49.8027 31.1561C-49.5039 33.433 -49.5618 36.0909 -50.8287 37.6485C-52.0955 39.206 -54.7542 38.1902 -54.5935 35.8878C-54.9593 37.4749 -56.7793 37.7162 -57.6179 36.4972C-58.461 35.2784 -58.3896 33.285 -57.7919 31.829C-57.1942 30.3731 -56.1771 29.3277 -55.1913 28.3247C-53.0725 26.1704 -50.9224 23.9908 -48.469 22.6364C-46.0111 21.2821 -43.1741 20.825 -40.7118 22.1709C-39.4137 22.8819 -38.2718 24.067 -36.947 24.6933C-35.6221 25.3239 -33.9405 25.2436 -33.0617 23.7707C-32.0759 22.1285 -32.5398 19.6907 -32.174 17.638C-31.5183 14.011 -27.6955 12.3138 -25.5766 14.7093C-27.1602 14.3241 -28.7973 16.1017 -28.9936 18.256C-29.1943 20.4102 -28.0478 22.5857 -26.5134 23.2374C-23.9351 24.3209 -21.4103 21.5953 -19.461 19.0728C-17.4269 16.4319 -15.3899 13.7923 -13.3498 11.1542C-13.0241 10.705 -12.6584 10.283 -12.2569 9.89295C-11.618 9.30206 -10.7663 8.96369 -9.87423 8.94641C-8.98218 8.92912 -8.11657 9.2342 -7.45275 9.79985C-5.3919 11.3954 -4.4239 14.667 -2.73327 16.9186C-0.279884 20.1902 3.3913 20.9858 6.80816 21.6207C9.35521 22.0905 11.9038 22.5631 14.4539 23.0385C16.1537 26.039 17.6366 29.1456 18.8923 32.3369C14.5742 34.0764 10.5908 37.3311 7.46381 41.7115Z" fill="white"/>
<path id="Vector_5" d="M27.2204 -1.22056C25.7253 -1.78366 24.1279 -2.06185 22.5195 -2.03922C20.911 -2.01659 19.3231 -1.69361 17.8462 -1.0887C16.3693 -0.483792 15.0325 0.391186 13.912 1.48628C12.7916 2.58138 11.9094 3.87515 11.3159 5.29372C8.81995 11.2596 8.40631 25.5066 13.0511 32.647C19.0234 22.8041 31.1061 19.1696 34.0862 13.8696C37.2706 8.2064 33.5083 1.14761 27.2204 -1.22056Z" fill="#EE24FF"/>
<path id="Vector_6" opacity="0.2" d="M34.0979 13.8853C31.1178 19.1853 19.0351 22.8198 13.0629 32.6628C12.6275 31.9863 12.2454 31.2801 11.9198 30.5501C18.0725 21.4371 29.4486 17.8705 32.3279 12.7498C34.905 8.16661 32.9319 2.66986 28.753 -0.515442C34.1 2.33446 37.0161 8.69556 34.0979 13.8853Z" fill="#231F20"/>
<path id="Vector_7" d="M111.61 116.412C106.134 116.412 100.131 116.216 93.6026 115.823C59.8354 113.789 16.0965 106.715 -29.557 95.9064C-75.2103 85.0976 -117.324 71.844 -148.14 58.5881C-163.151 52.1305 -174.672 46.0179 -182.383 40.4197C-190.546 34.4933 -194.117 29.3274 -192.997 25.0662C-190.813 16.7647 -171.48 14.9485 -155.645 14.8868L-155.64 16.094C-177.385 16.1787 -190.213 19.469 -191.762 25.3586C-193.735 32.8598 -177.644 44.5705 -147.615 57.4885C-116.866 70.7154 -74.83 83.9434 -29.2488 94.7353C16.3322 105.527 59.9905 112.588 93.6834 114.618C126.587 116.601 146.592 113.436 148.565 105.935C150.203 99.7066 139.404 90.5319 118.158 80.1L118.743 79.0279C134.181 86.6079 152.1 97.4796 149.799 106.227C148.679 110.488 142.968 113.457 132.827 115.049C127.047 115.957 119.946 116.412 111.61 116.412Z" fill="#EE24FF"/>
</g>
</g>
</g>
<defs>
<clipPath id="clip0_0_1">
<rect width="350" height="238" fill="white" transform="translate(-200 -47)"/>
</clipPath>
</defs>
</svg>
